<svg xmlns="http://www.w3.org/2000/svg" xmlns:xlink="http://www.w3.org/1999/xlink" width="500" zoomAndPan="magnify" viewBox="0 0 375 374.999991" height="500" preserveAspectRatio="xMidYMid meet" version="1.0"><defs><g/><clipPath id="7d8fb2345d"><path d="M 135.324219 106 L 238 106 L 238 217.4375 L 135.324219 217.4375 Z M 135.324219 106 " clip-rule="nonzero"/></clipPath></defs><path fill="#1ed891" d="M 204.835938 147.757812 C 206.808594 149.71875 209.992188 149.699219 211.945312 147.726562 C 213.902344 145.753906 213.886719 142.566406 211.914062 140.609375 C 200.109375 128.90625 180.996094 128.992188 169.304688 140.804688 C 157.609375 152.617188 157.695312 171.746094 169.496094 183.449219 C 175.398438 189.300781 183.125 192.207031 190.84375 192.171875 C 198.558594 192.136719 206.261719 189.160156 212.109375 183.253906 C 214.066406 181.28125 214.050781 178.09375 212.078125 176.136719 C 210.105469 174.183594 206.921875 174.195312 204.964844 176.171875 C 197.175781 184.039062 184.441406 184.09375 176.578125 176.300781 C 168.71875 168.5 168.65625 155.757812 176.449219 147.886719 C 184.238281 140.023438 196.972656 139.960938 204.835938 147.757812 Z M 204.835938 147.757812 " fill-opacity="1" fill-rule="nonzero"/><g clip-path="url(#7d8fb2345d)"><path fill="#1ed891" d="M 237.285156 183.167969 C 237.253906 176.449219 234.609375 170.140625 229.839844 165.40625 C 227.867188 163.453125 227.855469 160.261719 229.804688 158.289062 C 239.5625 148.433594 239.488281 132.46875 229.640625 122.703125 C 207.976562 101.21875 172.878906 101.375 151.410156 123.0625 C 141.011719 133.566406 135.316406 147.496094 135.386719 162.285156 C 135.453125 177.074219 141.273438 190.949219 151.769531 201.355469 C 162.601562 212.101562 176.792969 217.433594 190.957031 217.367188 C 205.125 217.300781 219.265625 211.839844 230 201 C 234.730469 196.226562 237.3125 189.890625 237.285156 183.167969 Z M 222.855469 193.914062 C 205.292969 211.652344 176.578125 211.785156 158.847656 194.207031 C 150.261719 185.691406 145.5 174.335938 145.445312 162.238281 C 145.390625 150.136719 150.046875 138.742188 158.554688 130.144531 C 176.117188 112.40625 204.835938 112.273438 222.5625 129.851562 C 228.472656 135.714844 228.515625 145.292969 222.660156 151.203125 C 216.804688 157.117188 216.851562 166.695312 222.757812 172.558594 C 225.621094 175.398438 227.207031 179.183594 227.222656 183.214844 C 227.246094 187.25 225.695312 191.046875 222.855469 193.914062 " fill-opacity="1" fill-rule="nonzero"/></g><path fill="#1ed891" d="M 189.976562 170.207031 C 189.4375 170.207031 188.90625 170.15625 188.378906 170.050781 C 187.855469 169.945312 187.34375 169.789062 186.847656 169.585938 C 186.351562 169.378906 185.882812 169.128906 185.433594 168.828125 C 184.988281 168.53125 184.578125 168.191406 184.195312 167.8125 C 183.816406 167.433594 183.480469 167.019531 183.179688 166.574219 C 182.882812 166.125 182.632812 165.65625 182.425781 165.160156 C 182.21875 164.664062 182.066406 164.152344 181.960938 163.625 C 181.855469 163.097656 181.804688 162.566406 181.804688 162.03125 C 181.804688 161.492188 181.855469 160.960938 181.960938 160.433594 C 182.066406 159.90625 182.21875 159.394531 182.425781 158.898438 C 182.632812 158.402344 182.882812 157.933594 183.179688 157.488281 C 183.480469 157.039062 183.816406 156.625 184.195312 156.246094 C 184.578125 155.867188 184.988281 155.527344 185.433594 155.230469 C 185.882812 154.933594 186.351562 154.679688 186.847656 154.472656 C 187.34375 154.269531 187.855469 154.113281 188.378906 154.007812 C 188.90625 153.90625 189.4375 153.851562 189.976562 153.851562 C 190.511719 153.851562 191.042969 153.90625 191.570312 154.007812 C 192.09375 154.113281 192.605469 154.269531 193.101562 154.472656 C 193.597656 154.679688 194.066406 154.933594 194.515625 155.230469 C 194.960938 155.527344 195.371094 155.867188 195.753906 156.246094 C 196.132812 156.625 196.46875 157.039062 196.769531 157.488281 C 197.066406 157.933594 197.316406 158.402344 197.523438 158.898438 C 197.730469 159.394531 197.882812 159.90625 197.988281 160.433594 C 198.09375 160.960938 198.144531 161.492188 198.144531 162.03125 C 198.144531 162.566406 198.09375 163.097656 197.988281 163.625 C 197.882812 164.152344 197.730469 164.664062 197.523438 165.160156 C 197.316406 165.65625 197.066406 166.125 196.769531 166.574219 C 196.46875 167.019531 196.132812 167.433594 195.753906 167.8125 C 195.371094 168.191406 194.960938 168.53125 194.515625 168.828125 C 194.066406 169.128906 193.597656 169.378906 193.101562 169.585938 C 192.605469 169.789062 192.09375 169.945312 191.570312 170.050781 C 191.042969 170.15625 190.511719 170.207031 189.976562 170.207031 Z M 189.976562 170.207031 " fill-opacity="1" fill-rule="nonzero"/><g fill="#ffffff" fill-opacity="1"><g transform="translate(109.837341, 265.815172)"><g><path d="M 0.765625 -13.71875 L 0.765625 -15.484375 C 0.765625 -18.410156 1.363281 -20.945312 2.5625 -23.09375 C 3.757812 -25.238281 5.484375 -26.90625 7.734375 -28.09375 C 9.992188 -29.28125 12.679688 -29.875 15.796875 -29.875 C 20.328125 -29.875 23.859375 -28.703125 26.390625 -26.359375 C 28.929688 -24.015625 30.332031 -20.734375 30.59375 -16.515625 L 20.203125 -16.515625 C 20.015625 -18.171875 19.550781 -19.363281 18.8125 -20.09375 C 18.082031 -20.832031 17.066406 -21.203125 15.765625 -21.203125 C 14.347656 -21.203125 13.210938 -20.726562 12.359375 -19.78125 C 11.503906 -18.832031 11.078125 -17.332031 11.078125 -15.28125 L 11.078125 -13.921875 C 11.078125 -11.890625 11.503906 -10.394531 12.359375 -9.4375 C 13.210938 -8.476562 14.347656 -8 15.765625 -8 C 17.066406 -8 18.082031 -8.363281 18.8125 -9.09375 C 19.550781 -9.832031 20.015625 -11.03125 20.203125 -12.6875 L 30.59375 -12.6875 C 30.332031 -8.5 28.929688 -5.222656 26.390625 -2.859375 C 23.859375 -0.492188 20.328125 0.6875 15.796875 0.6875 C 12.679688 0.6875 9.992188 0.09375 7.734375 -1.09375 C 5.484375 -2.28125 3.757812 -3.953125 2.5625 -6.109375 C 1.363281 -8.273438 0.765625 -10.8125 0.765625 -13.71875 Z M 0.765625 -13.71875 "/></g></g></g><g fill="#ffffff" fill-opacity="1"><g transform="translate(141.154233, 265.815172)"><g><path d="M 15.6875 -21.875 C 16.351562 -21.875 16.929688 -21.828125 17.421875 -21.734375 C 17.910156 -21.640625 18.300781 -21.554688 18.59375 -21.484375 L 18.59375 -11.3125 C 18.164062 -11.375 17.671875 -11.414062 17.109375 -11.4375 C 16.554688 -11.46875 15.945312 -11.484375 15.28125 -11.484375 C 13.894531 -11.484375 12.945312 -11.164062 12.4375 -10.53125 C 11.9375 -9.90625 11.6875 -8.769531 11.6875 -7.125 L 11.6875 0 L 1.796875 0 L 1.796875 -21.203125 L 6.515625 -21.203125 L 9.796875 -14.59375 C 10.085938 -16.46875 10.515625 -17.929688 11.078125 -18.984375 C 11.640625 -20.035156 12.316406 -20.78125 13.109375 -21.21875 C 13.910156 -21.65625 14.769531 -21.875 15.6875 -21.875 Z M 15.6875 -21.875 "/></g></g></g><g fill="#ffffff" fill-opacity="1"><g transform="translate(160.352325, 265.815172)"><g><path d="M 12.515625 -9.078125 L 15.515625 -21.203125 L 25.203125 -21.203125 L 19.046875 -2.3125 C 18.210938 0.289062 17.25 2.398438 16.15625 4.015625 C 15.0625 5.628906 13.738281 6.800781 12.1875 7.53125 C 10.644531 8.269531 8.726562 8.640625 6.4375 8.640625 C 5.289062 8.640625 4.25 8.570312 3.3125 8.4375 C 2.382812 8.300781 1.640625 8.171875 1.078125 8.046875 L 1.078125 0.875 C 2.066406 1.007812 2.945312 1.078125 3.71875 1.078125 C 4.539062 1.078125 5.148438 0.9375 5.546875 0.65625 C 5.953125 0.375 6.289062 -0.125 6.5625 -0.84375 L -0.71875 -21.203125 L 9.4375 -21.203125 Z M 12.515625 -9.078125 "/></g></g></g><g fill="#ffffff" fill-opacity="1"><g transform="translate(184.829897, 265.815172)"><g><path d="M 17.875 -21.875 C 19.53125 -21.875 21.035156 -21.445312 22.390625 -20.59375 C 23.753906 -19.738281 24.835938 -18.507812 25.640625 -16.90625 C 26.441406 -15.3125 26.84375 -13.382812 26.84375 -11.125 L 26.84375 -10.078125 C 26.84375 -7.835938 26.441406 -5.910156 25.640625 -4.296875 C 24.835938 -2.679688 23.78125 -1.445312 22.46875 -0.59375 C 21.164062 0.257812 19.726562 0.6875 18.15625 0.6875 C 16.6875 0.6875 15.363281 0.3125 14.1875 -0.4375 C 13.019531 -1.1875 12.09375 -2.296875 11.40625 -3.765625 L 11.40625 8 L 1.796875 8 L 1.796875 -21.203125 L 6.5625 -21.203125 L 9.515625 -14.71875 C 10.046875 -17.09375 11.046875 -18.878906 12.515625 -20.078125 C 13.984375 -21.273438 15.769531 -21.875 17.875 -21.875 Z M 14.3125 -6.953125 C 15.226562 -6.953125 15.941406 -7.238281 16.453125 -7.8125 C 16.972656 -8.394531 17.234375 -9.320312 17.234375 -10.59375 C 17.234375 -11.875 16.972656 -12.800781 16.453125 -13.375 C 15.941406 -13.945312 15.226562 -14.234375 14.3125 -14.234375 C 13.4375 -14.234375 12.734375 -13.941406 12.203125 -13.359375 C 11.671875 -12.773438 11.40625 -11.851562 11.40625 -10.59375 C 11.40625 -9.34375 11.671875 -8.421875 12.203125 -7.828125 C 12.734375 -7.242188 13.4375 -6.953125 14.3125 -6.953125 Z M 14.3125 -6.953125 "/></g></g></g><g fill="#ffffff" fill-opacity="1"><g transform="translate(212.427151, 265.815172)"><g><path d="M 25.59375 -11.953125 C 25.59375 -11.421875 25.578125 -10.9375 25.546875 -10.5 C 25.523438 -10.0625 25.488281 -9.613281 25.4375 -9.15625 L 10.046875 -9.15625 C 10.171875 -8.007812 10.488281 -7.21875 11 -6.78125 C 11.507812 -6.34375 12.148438 -6.125 12.921875 -6.125 C 13.691406 -6.125 14.269531 -6.253906 14.65625 -6.515625 C 15.039062 -6.785156 15.328125 -7.132812 15.515625 -7.5625 L 25.3125 -7.5625 C 25.15625 -6.0625 24.628906 -4.6875 23.734375 -3.4375 C 22.847656 -2.1875 21.539062 -1.1875 19.8125 -0.4375 C 18.09375 0.3125 15.898438 0.6875 13.234375 0.6875 C 10.546875 0.6875 8.273438 0.234375 6.421875 -0.671875 C 4.566406 -1.585938 3.160156 -2.859375 2.203125 -4.484375 C 1.242188 -6.109375 0.765625 -7.972656 0.765625 -10.078125 L 0.765625 -11.125 C 0.765625 -13.25 1.242188 -15.117188 2.203125 -16.734375 C 3.160156 -18.347656 4.578125 -19.609375 6.453125 -20.515625 C 8.335938 -21.421875 10.640625 -21.875 13.359375 -21.875 C 16.023438 -21.875 18.265625 -21.441406 20.078125 -20.578125 C 21.890625 -19.710938 23.257812 -18.53125 24.1875 -17.03125 C 25.125 -15.539062 25.59375 -13.847656 25.59375 -11.953125 Z M 13.15625 -15.40625 C 12.332031 -15.40625 11.671875 -15.21875 11.171875 -14.84375 C 10.679688 -14.46875 10.332031 -13.800781 10.125 -12.84375 L 16 -12.84375 C 15.894531 -13.769531 15.601562 -14.425781 15.125 -14.8125 C 14.644531 -15.207031 13.988281 -15.40625 13.15625 -15.40625 Z M 13.15625 -15.40625 "/></g></g></g><g fill="#ffffff" fill-opacity="1"><g transform="translate(238.784529, 265.815172)"><g><path d="M 25.59375 -11.953125 C 25.59375 -11.421875 25.578125 -10.9375 25.546875 -10.5 C 25.523438 -10.0625 25.488281 -9.613281 25.4375 -9.15625 L 10.046875 -9.15625 C 10.171875 -8.007812 10.488281 -7.21875 11 -6.78125 C 11.507812 -6.34375 12.148438 -6.125 12.921875 -6.125 C 13.691406 -6.125 14.269531 -6.253906 14.65625 -6.515625 C 15.039062 -6.785156 15.328125 -7.132812 15.515625 -7.5625 L 25.3125 -7.5625 C 25.15625 -6.0625 24.628906 -4.6875 23.734375 -3.4375 C 22.847656 -2.1875 21.539062 -1.1875 19.8125 -0.4375 C 18.09375 0.3125 15.898438 0.6875 13.234375 0.6875 C 10.546875 0.6875 8.273438 0.234375 6.421875 -0.671875 C 4.566406 -1.585938 3.160156 -2.859375 2.203125 -4.484375 C 1.242188 -6.109375 0.765625 -7.972656 0.765625 -10.078125 L 0.765625 -11.125 C 0.765625 -13.25 1.242188 -15.117188 2.203125 -16.734375 C 3.160156 -18.347656 4.578125 -19.609375 6.453125 -20.515625 C 8.335938 -21.421875 10.640625 -21.875 13.359375 -21.875 C 16.023438 -21.875 18.265625 -21.441406 20.078125 -20.578125 C 21.890625 -19.710938 23.257812 -18.53125 24.1875 -17.03125 C 25.125 -15.539062 25.59375 -13.847656 25.59375 -11.953125 Z M 13.15625 -15.40625 C 12.332031 -15.40625 11.671875 -15.21875 11.171875 -14.84375 C 10.679688 -14.46875 10.332031 -13.800781 10.125 -12.84375 L 16 -12.84375 C 15.894531 -13.769531 15.601562 -14.425781 15.125 -14.8125 C 14.644531 -15.207031 13.988281 -15.40625 13.15625 -15.40625 Z M 13.15625 -15.40625 "/></g></g></g></svg>